<?xml version="1.0" encoding="UTF-8" standalone="no"?>
<svg
   xmlns:dc="http://purl.org/dc/elements/1.1/"
   xmlns:cc="http://creativecommons.org/ns#"
   xmlns:rdf="http://www.w3.org/1999/02/22-rdf-syntax-ns#"
   xmlns:svg="http://www.w3.org/2000/svg"
   xmlns="http://www.w3.org/2000/svg"
   viewBox="0 0 1066.6667 1066.6667"
   height="1066.6667"
   width="1066.6667"
   xml:space="preserve"
   id="svg2"
   version="1.1"><metadata
     id="metadata8"><rdf:RDF><cc:Work
         rdf:about=""><dc:format>image/svg+xml</dc:format><dc:type
           rdf:resource="http://purl.org/dc/dcmitype/StillImage" /></cc:Work></rdf:RDF></metadata><defs
     id="defs6"><clipPath
       id="clipPath18"
       clipPathUnits="userSpaceOnUse"><path
         id="path16"
         d="M 0,800 H 800 V 0 H 0 Z" /></clipPath></defs><g
     transform="matrix(1.3333333,0,0,-1.3333333,0,1066.6667)"
     id="g10"><g
       id="g12"><g
         clip-path="url(#clipPath18)"
         id="g14"><g
           transform="translate(690.1045,422.6641)"
           id="g20"><path
             id="path22"
             style="fill:#000000;fill-opacity:1;fill-rule:nonzero;stroke:none"
             d="m 0,0 c -4.365,-8.494 -11.586,-19.593 -18.87,-26.751 h -541.063 c -4.348,5.87 -13.061,17.614 -17.394,26.751 m 536.698,-54.161 h -496.1 c 7.269,-9.169 15.981,-18.337 24.663,-24.176 h 443.869 c 10.174,5.839 20.345,15.007 27.568,24.176 m -60.88,-49.672 H -237.87 c -4.395,-21.54 -4.395,-41.79 -4.395,-56.768 40.661,2.608 92.873,20.849 140.756,56.768 M 50.771,176.282 C -11.586,172.357 -100.064,130.598 -158.118,62.686 -169.706,50.283 -178.434,37.865 -185.655,25.463 H 13.062 c 27.565,54.208 42.041,107.066 37.709,150.819 m -387.293,-336.883 c 0,14.978 0,35.228 -1.444,56.768 h -137.836 c 47.882,-35.919 101.572,-54.16 139.28,-56.768 m 47.881,-3.923 c 14.491,14.348 28.996,34.599 42.041,60.691 h -85.573 c 14.49,-26.092 27.551,-46.343 43.532,-60.691 M -390.212,25.463 c -7.237,12.402 -17.393,24.82 -27.551,37.223 -58.039,67.912 -147.963,109.671 -208.89,113.596 -4.332,-43.753 8.714,-96.611 36.265,-150.819 z m 188.608,0 c 0,15.683 1.442,30.047 1.442,47.678 0,94.648 -42.103,192.577 -88.479,236.346 -47.881,-43.769 -88.509,-141.698 -88.509,-236.346 0,-17.631 0,-31.995 2.92,-47.678 z M -1.476,-355.203 c 29.041,0 52.247,11.743 52.247,39.876 0,16.327 -11.586,27.41 -30.457,31.962 -18.872,4.584 -42.074,3.924 -42.074,16.327 1.446,7.849 8.73,9.796 20.284,9.796 17.425,0 17.425,-9.138 18.87,-15.668 h 29.042 c -2.888,22.199 -20.313,37.835 -49.326,37.835 -30.486,0 -47.881,-16.327 -47.881,-37.175 0,-11.744 5.809,-22.858 15.95,-28.133 7.254,-3.234 17.394,-5.84 29.012,-7.787 13.062,-1.287 24.648,-2.605 26.123,-11.743 0,-5.901 -7.252,-13.72 -20.314,-13.72 -18.87,0 -23.204,11.084 -23.204,18.306 H -53.69 c 0,-23.518 20.314,-39.876 52.214,-39.876 m -158.087,60.095 c 0,-17.645 15.949,-32.654 33.375,-32.654 17.395,0 31.901,15.009 31.901,32.654 0,18.274 -14.506,33.941 -31.901,33.941 -17.426,0 -33.375,-15.667 -33.375,-33.941 m 31.931,-60.095 c -33.377,0 -60.911,27.441 -60.911,60.095 0,33.941 27.534,60.033 60.911,60.033 13.062,0 24.615,-3.266 33.345,-9.766 v 8.51 h 29.011 v -116.235 h -29.011 v 7.786 c -8.73,-5.839 -20.283,-10.423 -33.345,-10.423 m -165.389,60.095 c 0,-17.645 15.983,-32.654 33.376,-32.654 18.887,0 33.36,15.009 33.36,32.654 0,18.274 -14.473,33.941 -33.36,33.941 -17.393,0 -33.376,-15.667 -33.376,-33.941 m 66.736,98.588 h 29.013 v -156.046 h -29.013 v 7.786 c -8.695,-5.839 -21.757,-10.423 -33.36,-10.423 -33.376,0 -60.927,27.441 -60.927,60.095 0,33.941 27.551,60.033 60.927,60.033 11.603,0 23.219,-3.266 33.36,-9.766 z m -134.9,0 h 29.012 v -28.76 h -29.012 z m 29.012,-156.046 h -29.012 v 116.235 h 29.012 z m -139.249,57.458 c 0,-17.645 15.95,-32.654 34.789,-32.654 17.425,0 33.375,15.009 33.375,32.654 0,18.274 -15.95,33.941 -33.375,33.941 -18.839,0 -34.789,-15.667 -34.789,-33.941 m 33.376,-60.095 c -33.376,0 -60.959,27.441 -60.959,60.095 0,33.941 27.583,60.033 60.959,60.033 13.046,0 24.615,-3.266 34.788,-9.766 v 48.321 h 29.028 v -156.046 h -29.028 v 7.786 c -10.173,-5.839 -21.742,-10.423 -34.788,-10.423 m -166.832,60.095 c 0,-17.645 15.934,-32.654 33.329,-32.654 18.885,0 34.82,15.009 34.82,32.654 0,18.274 -15.935,33.941 -34.82,33.941 -17.395,0 -33.329,-15.667 -33.329,-33.941 m 33.329,-60.095 c -33.329,0 -60.897,27.441 -60.897,60.095 0,33.941 27.568,60.033 60.897,60.033 13.061,0 24.694,-3.266 34.82,-9.766 v 8.51 h 27.551 v -116.235 h -27.551 v 7.786 c -10.126,-5.839 -21.759,-10.423 -34.82,-10.423" /></g></g></g></g></svg>