<?xml version="1.0" encoding="UTF-8" standalone="no"?>
<svg
   xmlns:dc="http://purl.org/dc/elements/1.1/"
   xmlns:cc="http://creativecommons.org/ns#"
   xmlns:rdf="http://www.w3.org/1999/02/22-rdf-syntax-ns#"
   xmlns:svg="http://www.w3.org/2000/svg"
   xmlns="http://www.w3.org/2000/svg"
   viewBox="0 0 392.31467 105.46537"
   height="105.46537"
   width="392.31467"
   xml:space="preserve"
   id="svg2"
   version="1.1"><metadata
     id="metadata8"><rdf:RDF><cc:Work
         rdf:about=""><dc:format>image/svg+xml</dc:format><dc:type
           rdf:resource="http://purl.org/dc/dcmitype/StillImage" /></cc:Work></rdf:RDF></metadata><defs
     id="defs6" /><g
     transform="matrix(1.3333333,0,0,-1.3333333,0,105.46613)"
     id="g10"><g
       transform="scale(0.1)"
       id="g12"><path
         id="path14"
         style="fill:#050301;fill-opacity:1;fill-rule:nonzero;stroke:none"
         d="m 1423.69,139.656 c -11.17,-9.668 -26.94,-15.972 -41.03,-16.031 -17.81,-0.062 -33.01,9.859 -33.09,35.602 -0.19,63.949 86.82,121.324 144.83,120.886 -12.82,-50.203 -22.77,-99.05 -70.71,-140.457 m 1092.89,-6.621 c -83.31,23.852 -126.18,76.606 -142.89,124.278 27.28,22.878 61.14,43.171 94.33,65.164 19.31,12.812 24.64,25.945 32.4,46.269 9.37,24.496 18.77,59.152 19.25,76.508 0.36,12.605 -0.6,22.375 -16.66,21.805 -15.51,-0.516 -69.3,-35.34 -82.45,-44.317 -73.53,-50.109 -136.2,-111.281 -190.39,-181.758 24.51,99.196 52.49,245.547 64.49,319.778 3.87,23.933 10.32,56.621 -2.96,78.73 -10.21,17.012 -38.89,50.492 -61.47,63.301 -21.58,12.207 -32.74,-2.305 -36.73,-21.941 -14.46,-71.52 -22.61,-110.954 -34.54,-169.457 -16.94,-83.219 -32.03,-149.516 -69.59,-242.633 -21.16,-52.485 -68.9,-145.063 -122.61,-145.278 -52.44,-0.175 -33.59,126.899 -33.7,161.278 -0.05,12.215 -2.02,41.972 -30.88,48.484 -96.62,21.731 -111.14,53.094 -130.24,49.703 -11.88,-2.094 -18.83,-12.984 -23.7,-29.039 -19.2,-63.933 -29.81,-121.519 -67.4,-178.551 -17.5,-26.543 -49.8,-57.886 -74.56,-58.007 -24.89,-0.079 -33.39,22.152 -33.39,44.375 0,62.421 17.38,125.964 25.33,161.656 5.91,26.582 -8.43,31.328 -22.14,35.305 -17.65,5.136 -39.58,5.859 -47.69,5.82 -74.93,-0.266 -144.4,-24.336 -202.32,-71.867 -24.21,-19.875 -43.65,-44.157 -63.61,-68.161 -21.98,-26.382 -86.91,-106.406 -125.79,-106.542 -26.99,-0.079 -30,30.429 -30.07,51.328 -0.3,92.289 44.42,232.992 77.37,317.199 21.92,55.961 45.12,106.586 52.25,136.469 5.87,24.644 -0.69,46.57 -14.28,64.925 -18.19,24.563 -38.38,41.793 -56.56,50.149 -12.82,5.906 -25.26,2.406 -33.93,-9.828 C 1117.18,708 1098.48,667.07 1091.07,651.016 1033.26,525.637 989.797,379.391 990.281,240.809 990.52,166.492 998.828,30.4609 1100.58,30.793 c 56.08,0.1914 105.08,34.2578 140.83,75.113 7.01,-48.1013 45.15,-75.3083 98.15,-75.113 58.45,0.1914 111.63,33.6328 147.32,77.906 11.62,-48.9412 50,-78.1013 100.04,-77.906 120.29,0.4062 191.69,132.77 223.64,231.891 3.77,-2.457 10.12,-4.176 10.12,-4.176 -0.9,-11.43 -1.68,-28.867 -1.66,-42.563 0.12,-77.847 18.66,-185.4841 120.1,-185.152 86.53,0.2695 142.21,80.547 182.04,146.91 h 2.42 c -6.98,-45.137 -16.2,-81.6796 -19.26,-127.7928 -1.31,-19.7813 26.8,-18.0079 39.37,-18.0079 61.83,0 59.24,14.6915 75.78,67.4063 10.84,34.5314 36.82,60.3474 62.6,84.3324 13.1,-27.75 42.07,-74.879 84.88,-110.8597 26.36,-22.168 63.41,-41.25 95.69,-41.1485 14.01,0.0391 20.98,1.8906 31.64,10.1328 22.27,17.2657 39.77,54.1641 41.81,67.3824 1.95,12.524 -8.58,20.762 -19.51,23.887" /><path
         id="path16"
         style="fill:#050301;fill-opacity:1;fill-rule:nonzero;stroke:none"
         d="m 2837.26,202.391 c 3.64,-57.813 -39.88,-100.133 -98.44,-131.8168 -61.52,-33.2383 -132.45,-50.8164 -185.45,-46.2265 -11.31,0.9726 -18.69,8.8437 -16.23,25.5625 2.3,15.6054 7.51,29.4921 13.34,40.8437 8.12,15.7381 19.87,26.4411 42.73,29.0041 14.23,1.621 43.36,2.246 67.86,9.844 28.55,8.867 58.53,22.3 58.53,46.191 0,42.305 -185.9,18.238 -185.9,101.25 0,84.223 138.71,123.766 192.64,138.887 24.27,6.812 52.15,10.465 62.86,10.465 13.01,0 18.5,-8.434 16.08,-19.801 -5.38,-25.211 -16.92,-56.043 -44.86,-63.043 -12.34,-3.067 -78.18,-16.203 -99.9,-26.731 -6.7,-3.25 -10.54,-7.918 -10.5,-12.617 0.01,-5.906 7.15,-9.336 18.96,-12.422 47.86,-12.316 163.75,-18.566 168.28,-89.39" /><path
         id="path18"
         style="fill:#050301;fill-opacity:1;fill-rule:nonzero;stroke:none"
         d="M 961.25,33.3086 C 942.52,33.293 924.785,35.5977 906.277,38 841.387,46.3945 781.926,51.1602 723.086,51.1602 603.125,51.1602 509.395,39.6797 403.328,23.625 320.43,11.0859 250.52,2.21875 186.121,0.265625 95.1953,-2.52734 0,15.7305 0,126.633 0,256.688 144.043,416.973 279.766,525.648 411.121,630.793 555.605,705.352 649.043,743 c 62.336,25.148 138.555,47.996 186.035,47.996 45.75,0 38.594,-40.402 4.981,-98.144 C 808.406,638.492 794.18,624.617 749.91,619.07 673.008,609.371 562.793,600.063 353.293,439.941 234.063,348.832 125.723,222.605 127.629,157.551 c 1.16,-41.172 31.766,-54.399 69.207,-54.399 54.934,0 117.195,11.758 195.879,26.114 123.457,22.5 277.265,54.359 406.699,54.359 34.863,0 67.578,-3.789 97.129,-11.352 22.668,-5.796 37.195,-18.906 51.926,-38.242 12.027,-15.722 22.625,-33.941 30.789,-50.5232 7.39,-15.1015 13.68,-30.3164 8.906,-39.9844 -3.113,-6.289 -10.344,-10.2148 -26.914,-10.2148" /><path
         id="path20"
         style="fill:#050301;fill-opacity:1;fill-rule:nonzero;stroke:none"
         d="m 2889.08,82.3906 c 2.13,0 4.15,0.0586 6.07,0.1992 1.91,0.1524 3.59,0.5235 5.09,1.1875 1.49,0.6485 2.69,1.6446 3.55,3.0079 0.89,1.3515 1.35,3.2031 1.35,5.6484 0,2.0469 -0.41,3.6523 -1.18,4.8789 -0.81,1.1953 -1.84,2.1289 -3.07,2.7775 -1.29,0.68 -2.72,1.133 -4.34,1.328 -1.63,0.215 -3.26,0.391 -4.83,0.391 h -12.54 V 82.3906 Z m 4.18,27.0744 c 7.27,0 12.64,-1.465 16.13,-4.36 3.48,-2.847 5.23,-7.2456 5.23,-13.1011 0,-5.4883 -1.55,-9.4922 -4.6,-12.0703 -3.09,-2.5586 -6.89,-4.043 -11.45,-4.5117 l 17.45,-26.9531 h -10.2 l -16.6,26.25 h -10.04 v -26.25 h -9.49 v 60.9962 z m -43.04,-48.0705 c 2.18,-5.4492 5.23,-10.1562 9.06,-14.1601 3.88,-4.0039 8.42,-7.168 13.69,-9.4141 5.25,-2.3047 10.96,-3.4336 17.1,-3.4336 6.04,0 11.66,1.1289 16.86,3.4336 5.21,2.2461 9.76,5.4102 13.62,9.4141 3.86,4.0039 6.88,8.7109 9.06,14.1601 2.19,5.4532 3.29,11.3711 3.29,17.793 0,6.2344 -1.1,12.0352 -3.29,17.4063 -2.18,5.4262 -5.2,10.1172 -9.06,14.0192 -3.86,3.965 -8.41,7.114 -13.62,9.375 -5.2,2.309 -10.82,3.418 -16.86,3.418 -6.14,0 -11.85,-1.109 -17.1,-3.418 -5.27,-2.261 -9.81,-5.41 -13.69,-9.375 -3.83,-3.902 -6.88,-8.593 -9.06,-14.0192 -2.18,-5.3711 -3.27,-11.1719 -3.27,-17.4063 0,-6.4219 1.09,-12.3398 3.27,-17.793 m -8.58,38.3008 c 2.8,6.2887 6.56,11.7817 11.39,16.4457 4.77,4.668 10.36,8.3 16.73,10.937 6.37,2.695 13.15,3.985 20.31,3.985 7.14,0 13.89,-1.29 20.2,-3.985 6.35,-2.637 11.89,-6.269 16.62,-10.937 4.76,-4.664 8.53,-10.157 11.31,-16.4457 2.8,-6.3281 4.16,-13.1797 4.16,-20.5078 0,-7.5391 -1.36,-14.4687 -4.16,-20.8789 -2.78,-6.3672 -6.55,-11.8906 -11.31,-16.582 -4.73,-4.7071 -10.27,-8.3594 -16.62,-10.9727 -6.31,-2.6016 -13.06,-3.8906 -20.2,-3.8906 -7.16,0 -13.94,1.289 -20.31,3.8906 -6.37,2.6133 -11.96,6.2656 -16.73,10.9727 -4.83,4.6914 -8.59,10.2148 -11.39,16.582 -2.77,6.4102 -4.18,13.3398 -4.18,20.8789 0,7.3281 1.41,14.1797 4.18,20.5078" /></g></g></svg>